# xmcd
#
# Track frame offsets: 
#        150
#        13547
#        29470
#        42957
#        53092
#        66380
#        81902
#        96147
#        109197
#        123297
#        140250
#        153080
#        166877
#        182860
#        195120
#        209165
#
# Disc length: 2955 seconds
#
# Revision: 5
# Processed by: cddbd v1.5.2PL0 Copyright (c) Steve Scherf et al.
# Submitted via: ExactAudioCopyFreeDBPlugin 1.0
#
DISCID=d40b8910
DTITLE=Various Artist - Die schönsten deutschen Country und Trucker Songs - K
DTITLE=ilometer 330 - Folge 5
DYEAR=1992
DGENRE=Country
TTITLE0=Truck Stop - Arizona - Arizona
TTITLE1=Jonny Hill - Immer und ewig und eine Nacht
TTITLE2=Dagmar - Laß mich damit bloß in Ruhe
TTITLE3=Gudrun Lange und Kactus - Ich tanz' im Regen
TTITLE4=Linda Feller - Ich weiß genau was ich will
TTITLE5=Joe Hodgkins Boss Band - Nimm dir Zeit für deine Freunde
TTITLE6=Hanna and Daana - It's Countrytime in Germany
TTITLE7=Mike Herman and Booze Company - Verliebt in Country
TTITLE8=Tom Astor - Ich bin kein Dichter - kein Poet
TTITLE9=Western Union - Danke
TTITLE10=Greyhounds - Typen mit dem Cowboyhut
TTITLE11=Jonny Hill - Alles gehabt und alles verloren
TTITLE12=Linda Feller - Spiel mir noch einmal das Lied
TTITLE13=Tex Haper - Und dann stehst du mal wieder im Stau
TTITLE14=Joe Hodgkins Boss Band - Papa ich möcht' Trucker werden
TTITLE15=Max Zwo - Gibt's koane Mad'ln zum Heirat'n mehr
EXTD=
EXTT0=
EXTT1=
EXTT2=
EXTT3=
EXTT4=
EXTT5=
EXTT6=
EXTT7=
EXTT8=
EXTT9=
EXTT10=
EXTT11=
EXTT12=
EXTT13=
EXTT14=
EXTT15=
PLAYORDER=
